<svg width="32" height="32" viewBox="0 0 32 32" fill="none" xmlns="http://www.w3.org/2000/svg">
<path d="M28.4479 0H3.05875C1.36946 0 1.52588e-05 1.36944 1.52588e-05 3.05873V28.4478C1.52588e-05 30.1371 1.36946 31.5066 3.05875 31.5066H28.4479C30.1371 31.5066 31.5066 30.1371 31.5066 28.4478V3.05873C31.5066 1.36944 30.1371 0 28.4479 0Z" fill="#AB1E37"/>
<path d="M28.4479 0H3.05875C1.36946 0 1.52588e-05 1.36944 1.52588e-05 3.05873V28.4478C1.52588e-05 30.1371 1.36946 31.5066 3.05875 31.5066H28.4479C30.1371 31.5066 31.5066 30.1371 31.5066 28.4478V3.05873C31.5066 1.36944 30.1371 0 28.4479 0Z" fill="#AB1E37"/>
<mask id="mask0_399_1560" style="mask-type:alpha" maskUnits="userSpaceOnUse" x="0" y="0" width="32" height="32">
<path d="M28.4479 0H3.05875C1.36946 0 1.52588e-05 1.36944 1.52588e-05 3.05873V28.4478C1.52588e-05 30.1371 1.36946 31.5066 3.05875 31.5066H28.4479C30.1371 31.5066 31.5066 30.1371 31.5066 28.4478V3.05873C31.5066 1.36944 30.1371 0 28.4479 0Z" fill="#AB1E37"/>
</mask>
<g mask="url(#mask0_399_1560)">
<path d="M28.4479 0H3.05875C1.36946 0 1.52588e-05 1.36944 1.52588e-05 3.05873V28.4478C1.52588e-05 30.1371 1.36946 31.5066 3.05875 31.5066H28.4479C30.1371 31.5066 31.5066 30.1371 31.5066 28.4478V3.05873C31.5066 1.36944 30.1371 0 28.4479 0Z" fill="#AB1E37"/>
<path d="M18.9545 4.10938C19.345 4.14191 19.7355 4.16632 20.1259 4.19886C20.3944 4.22326 20.6628 4.24767 20.9394 4.27207V7.97346C20.8255 7.97346 20.7279 7.97346 20.6222 7.97346C19.8412 7.9816 19.0603 7.97346 18.2793 8.01414C17.3113 8.06295 16.7744 8.57545 16.7337 9.5435C16.6849 10.5604 16.7255 11.5772 16.7255 12.6266H20.8093C20.6303 14.0258 20.4513 15.3925 20.2724 16.7755H16.7174V27.3915H12.4384V16.7917H8.8672V12.651H12.4384C12.4384 12.5372 12.4384 12.4477 12.4384 12.3582C12.4384 11.2762 12.414 10.1862 12.4628 9.10422C12.5198 7.80263 12.9021 6.59866 13.8214 5.62247C14.521 4.88219 15.3914 4.45918 16.3839 4.24767C16.6523 4.19072 16.9208 4.15005 17.1811 4.10938C17.7749 4.10938 18.3607 4.10938 18.9545 4.10938Z" fill="white"/>
</g>
</svg>
