<svg width="32" height="32" viewBox="0 0 32 32" fill="none" xmlns="http://www.w3.org/2000/svg">
<mask id="mask0_399_1557" style="mask-type:alpha" maskUnits="userSpaceOnUse" x="0" y="0" width="32" height="32">
<path d="M28.94 0H3.55093C1.86164 0 0.492203 1.36944 0.492203 3.05873V28.4478C0.492203 30.1371 1.86164 31.5066 3.55093 31.5066H28.94C30.6293 31.5066 31.9988 30.1371 31.9988 28.4478V3.05873C31.9988 1.36944 30.6293 0 28.94 0Z" fill="#AB1E37"/>
</mask>
<g mask="url(#mask0_399_1557)">
<path d="M28.94 0H3.55093C1.86164 0 0.492203 1.36944 0.492203 3.05873V28.4478C0.492203 30.1371 1.86164 31.5066 3.55093 31.5066H28.94C30.6293 31.5066 31.9988 30.1371 31.9988 28.4478V3.05873C31.9988 1.36944 30.6293 0 28.94 0Z" fill="#AB1E37"/>
<path d="M26.8178 10.048V20.0596C26.8094 20.1267 26.7927 20.1854 26.7843 20.2525C26.7089 20.613 26.667 20.9904 26.5496 21.3342C25.7619 23.6987 23.7004 25.208 21.22 25.2164C18.178 25.2248 15.1361 25.2164 12.0858 25.2164C11.1221 25.2164 10.2003 25.0068 9.37065 24.5204C7.47677 23.4136 6.50469 21.745 6.48793 19.5565C6.47117 16.5547 6.48793 13.5445 6.48793 10.5427C6.48793 10.1654 6.51307 9.77964 6.58849 9.41909C7.09967 7.13837 8.48237 5.67939 10.7282 5.05051C11.0215 4.96666 11.3399 4.94151 11.6416 4.88281C14.9769 4.88281 18.3121 4.88281 21.6473 4.88281C21.8568 4.91635 22.0663 4.94151 22.2675 4.98343C24.5468 5.49492 26.0133 6.87844 26.6418 9.134C26.7256 9.42747 26.7508 9.7461 26.8094 10.048H26.8178ZM25.6195 15.0706C25.6195 13.578 25.6195 12.0771 25.6195 10.5846C25.6195 10.2324 25.5943 9.88026 25.5105 9.54486C25.0412 7.46539 23.315 6.09025 21.1781 6.09025C18.1613 6.09025 15.1445 6.09025 12.1277 6.09025C11.4824 6.09025 10.8623 6.19925 10.2841 6.48434C8.58293 7.31446 7.71141 8.69798 7.70303 10.5846C7.68627 13.5697 7.70303 16.5547 7.70303 19.5398C7.70303 19.8835 7.72817 20.2273 7.80359 20.5627C8.27287 22.6422 9.99076 24.0257 12.136 24.0341C15.1612 24.0425 18.1864 24.0425 21.2116 24.0341C22.72 24.0341 23.9351 23.4052 24.8234 22.181C25.3932 21.4012 25.6362 20.5124 25.6362 19.5565C25.6362 18.064 25.6362 16.5799 25.6362 15.0873L25.6195 15.0706Z" fill="white" stroke="white" stroke-width="0.55" stroke-miterlimit="10"/>
<path d="M21.8 15.3596C21.7837 18.3532 19.3351 20.7937 16.374 20.7612C13.3722 20.7286 10.9643 18.3126 10.9806 15.3433C10.9968 12.3497 13.4454 9.90919 16.4066 9.94173C19.4083 9.97427 21.8163 12.3903 21.8 15.3596ZM16.3822 19.5979C18.7169 19.606 20.6204 17.7187 20.6367 15.3759C20.653 13.0411 18.7494 11.1213 16.4066 11.1132C14.0718 11.105 12.1683 12.9923 12.152 15.3352C12.1357 17.6699 14.0393 19.5897 16.3822 19.5979Z" fill="white" stroke="white" stroke-width="0.55" stroke-miterlimit="10"/>
<path d="M24 9.5C24 10.3168 23.3168 11 22.5 11C21.6832 11 21 10.3094 21 9.5C21 8.68317 21.6832 8 22.5 8C23.3243 8 24 8.67574 24 9.5ZM22.9381 9.5C22.9381 9.26238 22.7376 9.06931 22.5 9.06931C22.2698 9.06931 22.0767 9.2698 22.0767 9.5C22.0767 9.7302 22.2772 9.93812 22.5149 9.93812C22.7525 9.93812 22.9456 9.73762 22.9456 9.5H22.9381Z" fill="white"/>
</g>
</svg>
