<svg width="33" height="32" viewBox="0 0 33 32" fill="none" xmlns="http://www.w3.org/2000/svg">
<mask id="mask0_399_1558" style="mask-type:alpha" maskUnits="userSpaceOnUse" x="0" y="0" width="33" height="32">
<path d="M29.108 0H3.7189C2.02961 0 0.660172 1.36944 0.660172 3.05873V28.4478C0.660172 30.1371 2.02961 31.5066 3.7189 31.5066H29.108C30.7973 31.5066 32.1667 30.1371 32.1667 28.4478V3.05873C32.1667 1.36944 30.7973 0 29.108 0Z" fill="#AB1E37"/>
</mask>
<g mask="url(#mask0_399_1558)">
<path d="M29.108 0H3.7189C2.02961 0 0.660172 1.36944 0.660172 3.05873V28.4478C0.660172 30.1371 2.02961 31.5066 3.7189 31.5066H29.108C30.7973 31.5066 32.1667 30.1371 32.1667 28.4478V3.05873C32.1667 1.36944 30.7973 0 29.108 0Z" fill="#AB1E37"/>
<path d="M14.2227 10.8362H18.2251V12.6584C18.282 12.6259 18.3064 12.6259 18.3145 12.6096C19.2094 11.1779 20.5435 10.5515 22.1949 10.5108C23.1141 10.4864 24.0171 10.6084 24.8631 11.007C25.9532 11.5277 26.5715 12.4388 26.9132 13.5614C27.1897 14.4644 27.2792 15.3999 27.2874 16.3354C27.3036 18.9304 27.2955 21.5336 27.3036 24.1287C27.3036 24.1693 27.3036 24.21 27.2955 24.267H23.106C23.106 24.1775 23.106 24.088 23.106 23.9904C23.106 21.7858 23.106 19.5812 23.0979 17.3767C23.0979 16.8804 23.0572 16.3761 22.9677 15.8798C22.7155 14.4969 21.8126 14.0332 20.5272 14.1796C19.3558 14.3179 18.705 15.0013 18.526 16.2703C18.461 16.734 18.4284 17.2058 18.4284 17.6695C18.4203 19.7765 18.4284 21.8834 18.4284 23.9822C18.4284 24.0798 18.4284 24.1775 18.4284 24.2914H14.2389V10.8362H14.2227Z" fill="white"/>
<path d="M7.38673 24.3071V10.8438H11.56V24.3152H7.38673V24.3071Z" fill="white"/>
<path d="M11.8956 6.52549C11.8956 7.86776 10.8137 8.97411 9.48769 8.98224C8.15356 8.98224 7.03908 7.87589 7.03908 6.53363C7.03908 5.20764 8.12916 4.11756 9.45515 4.10942C10.7974 4.10129 11.8956 5.18323 11.8956 6.52549Z" fill="white"/>
</g>
</svg>
