<svg width="19" height="19" viewBox="0 0 19 19" fill="none" xmlns="http://www.w3.org/2000/svg">
<path d="M17.7313 13.3742V15.9386C17.7323 16.1766 17.683 16.4123 17.5867 16.6304C17.4903 16.8485 17.3491 17.0443 17.1719 17.2053C16.9947 17.3662 16.7855 17.4887 16.5577 17.565C16.3299 17.6413 16.0885 17.6696 15.8491 17.6482C13.1922 17.3623 10.6401 16.4635 8.39789 15.0239C6.31176 13.7115 4.54308 11.9605 3.21747 9.89519C1.7583 7.66521 0.850229 5.12629 0.566822 2.48414C0.545246 2.24776 0.573622 2.00952 0.650141 1.78459C0.726661 1.55967 0.849648 1.35298 1.01127 1.17769C1.1729 1.0024 1.36962 0.862346 1.58891 0.766449C1.8082 0.670552 2.04526 0.620912 2.285 0.620688H4.8752C5.29422 0.616605 5.70044 0.763506 6.01814 1.03401C6.33585 1.30451 6.54337 1.68016 6.60201 2.09093C6.71134 2.91159 6.91409 3.71737 7.20639 4.4929C7.32256 4.79885 7.3477 5.13135 7.27884 5.45102C7.20998 5.77068 7.05 6.0641 6.81786 6.29651L5.72134 7.3821C6.95044 9.52211 8.74019 11.294 10.9018 12.5108L11.9983 11.4253C12.233 11.1954 12.5294 11.0371 12.8523 10.9689C13.1752 10.9007 13.511 10.9256 13.8201 11.0406C14.6034 11.33 15.4173 11.5307 16.2462 11.639C16.6656 11.6975 17.0487 11.9067 17.3225 12.2266C17.5963 12.5466 17.7418 12.955 17.7313 13.3742Z" stroke="#141E45" stroke-linecap="round" stroke-linejoin="round"/>
</svg>
