<svg width="19" height="17" viewBox="0 0 19 17" fill="none" xmlns="http://www.w3.org/2000/svg">
<path d="M17.7885 12.0507V14.3088C17.7895 14.5184 17.7407 14.7259 17.6454 14.918C17.55 15.1101 17.4101 15.2825 17.2347 15.4242C17.0593 15.5659 16.8522 15.6738 16.6267 15.741C16.4012 15.8081 16.1623 15.8331 15.9252 15.8142C13.2949 15.5625 10.7684 14.7711 8.54863 13.5034C6.48339 12.3478 4.73244 10.8059 3.4201 8.9872C1.97554 7.02355 1.07657 4.78787 0.796 2.46127C0.77464 2.25313 0.802731 2.04335 0.878485 1.84528C0.954238 1.64722 1.07599 1.46522 1.236 1.31086C1.39601 1.15651 1.59076 1.03318 1.80785 0.948738C2.02495 0.864294 2.25963 0.820582 2.49696 0.820385H5.06123C5.47605 0.81679 5.8782 0.946146 6.19272 1.18434C6.50725 1.42254 6.71268 1.75332 6.77074 2.11503C6.87897 2.83768 7.07969 3.54722 7.36907 4.23012C7.48407 4.49953 7.50896 4.79233 7.44079 5.07381C7.37262 5.3553 7.21424 5.61367 6.98443 5.81832L5.89889 6.77426C7.11568 8.65868 8.8875 10.219 11.0274 11.2905L12.113 10.3345C12.3454 10.1322 12.6388 9.99269 12.9584 9.93266C13.2781 9.87263 13.6106 9.89455 13.9165 9.99582C14.692 10.2506 15.4977 10.4274 16.3184 10.5227C16.7336 10.5743 17.1128 10.7585 17.3838 11.0402C17.6549 11.3219 17.7989 11.6816 17.7885 12.0507Z" stroke="white" stroke-linecap="round" stroke-linejoin="round"/>
</svg>
