<svg width="33" height="32" viewBox="0 0 33 32" fill="none" xmlns="http://www.w3.org/2000/svg">
<mask id="mask0_399_1559" style="mask-type:alpha" maskUnits="userSpaceOnUse" x="0" y="0" width="33" height="32">
<path d="M29.2799 0H3.89078C2.20149 0 0.832047 1.36944 0.832047 3.05873V28.4478C0.832047 30.1371 2.20149 31.5066 3.89078 31.5066H29.2799C30.9692 31.5066 32.3386 30.1371 32.3386 28.4478V3.05873C32.3386 1.36944 30.9692 0 29.2799 0Z" fill="#AB1E37"/>
</mask>
<g mask="url(#mask0_399_1559)">
<path d="M29.2799 0H3.89078C2.20149 0 0.832047 1.36944 0.832047 3.05873V28.4478C0.832047 30.1371 2.20149 31.5066 3.89078 31.5066H29.2799C30.9692 31.5066 32.3386 30.1371 32.3386 28.4478V3.05873C32.3386 1.36944 30.9692 0 29.2799 0Z" fill="#AB1E37"/>
<path d="M6.82911 22.8262C9.19637 22.9808 11.3196 22.4195 13.2557 20.9633C11.2301 20.7762 9.89597 19.7593 9.13942 17.872H11.0511C11.0511 17.872 11.0511 17.8232 11.0593 17.7988C8.91978 17.1318 7.77276 15.6919 7.60193 13.3978C8.25272 13.707 8.86284 13.9185 9.57871 13.9266C8.45609 13.0236 7.76462 11.9335 7.65073 10.5343C7.57752 9.65576 7.81343 8.84227 8.25272 8.03691C10.6444 10.8272 13.6299 12.4054 17.2581 12.6331C17.2581 12.1369 17.2255 11.6895 17.2581 11.2339C17.437 8.94803 19.4057 7.18275 21.7079 7.21529C22.8874 7.23156 23.8962 7.66271 24.7422 8.46806C24.848 8.57382 24.9375 8.59822 25.0839 8.56568C25.9055 8.36231 26.6946 8.07759 27.4349 7.67084C27.4918 7.6383 27.5569 7.6139 27.6708 7.56509C27.3291 8.59822 26.7109 9.35477 25.8486 9.92422C25.8648 9.95676 25.873 9.98116 25.8892 10.0137C26.6539 9.80219 27.4267 9.59068 28.2158 9.37104C28.1589 9.46053 28.0938 9.55814 28.0287 9.64763C27.5244 10.3472 26.9305 10.9492 26.2472 11.4617C26.0926 11.5756 26.0438 11.6895 26.0519 11.8766C26.2065 16.8064 23.2779 21.671 18.8281 23.6234C14.8176 25.3806 10.864 25.1447 7.04061 22.9645C6.95926 22.9157 6.88605 22.8669 6.8047 22.8099L6.82911 22.8262Z" fill="white"/>
</g>
</svg>
