<svg width="15" height="17" viewBox="0 0 15 17" fill="none" xmlns="http://www.w3.org/2000/svg">
<path d="M9.94382 8.78367C9.94386 8.78365 9.94389 8.78362 9.94392 8.78359L9.97055 8.81381M9.94382 8.78367L9.97046 8.81388M9.94382 8.78367C9.89399 8.82757 9.84029 8.85802 9.74304 8.91317C9.71084 8.93143 9.67387 8.9524 9.63068 8.97745L9.62941 8.97819C9.59779 8.99666 9.56613 9.01478 9.53442 9.03254M9.94382 8.78367L9.53398 9.03278M9.97055 8.81381C9.97052 8.81383 9.97049 8.81386 9.97046 8.81388M9.97055 8.81381L10.2745 9.15871M9.97055 8.81381C10.0112 8.78495 10.0514 8.75434 10.0902 8.7219C10.5233 8.36203 10.9954 8.37519 11.6416 8.60666L10.2745 9.15871M9.97046 8.81388L10.2745 9.15871M9.97046 8.81388C9.86047 8.89206 9.74756 8.95741 9.65042 9.01146C9.65002 9.01168 9.64963 9.0119 9.64923 9.01212C9.62813 9.02386 9.60778 9.03506 9.58837 9.04575C9.5759 9.05261 9.56382 9.05926 9.55219 9.0657L9.53398 9.03278M10.2745 9.15871L9.55266 9.06543L9.53442 9.03254M9.53398 9.03278C9.53412 9.0327 9.53427 9.03262 9.53442 9.03254M9.53398 9.03278L9.31015 8.6282L9.53442 9.03254M4.85157 8.85836C5.11952 9.00965 5.40837 9.17158 5.70822 9.30992C5.41189 9.18913 5.12681 9.03747 4.85157 8.85836Z" stroke="#141E45"/>
<mask id="path-2-inside-1_645_245" fill="white">
<path d="M3.21411 3.97464C3.21237 1.78355 4.9956 0.0344238 7.23443 0.0344238C9.46717 0.0344238 11.267 1.79121 11.2678 3.97208C11.2678 6.15551 9.47327 7.90889 7.23705 7.90974C4.99386 7.90974 3.21585 6.17084 3.21411 3.97549V3.97464ZM7.2414 1.00436C5.5418 1.00266 4.18021 2.3243 4.18195 3.97549C4.18369 5.62498 5.55313 6.95513 7.24576 6.94917C8.93926 6.94406 10.2773 5.63605 10.2808 3.984C10.2843 2.31152 8.9532 1.00607 7.24227 1.00436H7.2414Z"/>
</mask>
<path d="M3.21411 3.97464L4.21411 3.97464L4.21411 3.97384L3.21411 3.97464ZM11.2678 3.97208L12.2678 3.97208L12.2678 3.97168L11.2678 3.97208ZM7.23705 7.90974L7.23705 8.90974L7.23743 8.90974L7.23705 7.90974ZM3.21411 3.97549L2.21411 3.97549L2.21411 3.97628L3.21411 3.97549ZM7.2414 1.00436L7.2404 2.00436H7.2414V1.00436ZM4.18195 3.97549L3.18195 3.97654L3.18195 3.97655L4.18195 3.97549ZM7.24576 6.94917L7.24274 5.94918L7.24224 5.94918L7.24576 6.94917ZM10.2808 3.984L11.2808 3.98611L11.2808 3.98609L10.2808 3.984ZM7.24227 1.00436L7.24327 0.00436191H7.24227V1.00436ZM4.21411 3.97384C4.21282 2.35474 5.5286 1.03442 7.23443 1.03442V-0.965576C4.4626 -0.965576 2.21192 1.21235 2.21411 3.97543L4.21411 3.97384ZM7.23443 1.03442C8.93748 1.03442 10.2672 2.36592 10.2678 3.97248L12.2678 3.97168C12.2667 1.21651 9.99686 -0.965576 7.23443 -0.965576V1.03442ZM10.2678 3.97208C10.2678 5.58116 8.94323 6.90909 7.23667 6.90974L7.23743 8.90974C10.0033 8.90869 12.2678 6.72985 12.2678 3.97208H10.2678ZM7.23705 6.90974C5.52548 6.90974 4.2154 5.59794 4.21411 3.9747L2.21411 3.97628C2.21631 6.74374 4.46223 8.90974 7.23705 8.90974V6.90974ZM4.21411 3.97549V3.97464H2.21411V3.97549H4.21411ZM7.24241 0.00436241C5.01776 0.00213313 3.1796 1.74463 3.18195 3.97654L5.18195 3.97443C5.18082 2.90396 6.06585 2.00318 7.2404 2.00436L7.24241 0.00436241ZM3.18195 3.97655C3.1843 6.20278 5.02719 7.95699 7.24928 7.94916L7.24224 5.94918C6.07907 5.95327 5.18308 5.04718 5.18195 3.97443L3.18195 3.97655ZM7.24878 7.94917C9.46983 7.94247 11.2761 6.2109 11.2808 3.98611L9.28082 3.9819C9.27854 5.0612 8.40869 5.94566 7.24274 5.94918L7.24878 7.94917ZM11.2808 3.98609C11.2855 1.73968 9.48545 0.00659439 7.24327 0.00436241L7.24128 2.00436C8.42095 2.00554 9.28311 2.88336 9.28082 3.98192L11.2808 3.98609ZM7.24227 0.00436191H7.2414V2.00436H7.24227V0.00436191Z" fill="#141E45" mask="url(#path-2-inside-1_645_245)"/>
</svg>
