<svg width="16" height="19" viewBox="0 0 16 19" fill="none" xmlns="http://www.w3.org/2000/svg">
<path d="M7.40859 18.1097V18.1068H7.90859C8.39189 18.1068 8.87329 18.1087 9.35357 18.1106C10.4233 18.1149 11.4875 18.1191 12.5544 18.102M7.40859 18.1097L12.5624 18.602M7.40859 18.1097C7.08024 18.1098 6.75195 18.1099 6.42369 18.11C5.43492 18.1105 4.44651 18.1109 3.45818 18.1096M7.40859 18.1097L12.723 9.82389C11.9971 9.56178 11.4483 9.54045 10.944 9.9632L10.6227 9.58003C10.4795 9.70063 10.3108 9.7945 10.1453 9.88663C10.1338 9.89301 10.1224 9.89938 10.1109 9.90575L10.3549 10.3422C9.2114 10.9816 7.92728 11.2924 6.57 10.7999L6.56994 10.7999C6.0669 10.6173 5.58134 10.3408 5.14264 10.0911C5.00122 10.0105 4.86466 9.9328 4.73396 9.86187L4.73363 9.86169C4.42068 9.69154 4.28753 9.62099 4.10775 9.6304L4.10772 9.6304C2.91441 9.69272 2.0795 10.2405 1.52353 11.2712L1.5235 11.2713C0.794924 12.6215 0.626559 14.1091 0.665354 15.6868L0.665358 15.687C0.682472 16.3921 0.947635 16.9935 1.49721 17.4642C2.04053 17.9278 2.69281 18.1078 3.45818 18.1096M12.5544 18.102L12.5624 18.602M12.5544 18.102C12.5544 18.102 12.5543 18.102 12.5543 18.102L12.5624 18.602M12.5544 18.102C14.0497 18.0779 15.076 17.1325 15.1605 15.8366M12.5624 18.602C14.282 18.5743 15.5557 17.4595 15.6594 15.8691M15.1605 15.8366C15.1605 15.8366 15.1605 15.8367 15.1605 15.8368L15.6594 15.8691M15.1605 15.8366C15.2508 14.4434 15.1005 13.0902 14.5817 11.8135M15.1605 15.8366L15.6594 15.8691M15.6594 15.8691L14.5817 11.8135M14.5817 11.8135L15.0449 11.6251L14.5816 11.8134C14.5817 11.8134 14.5817 11.8134 14.5817 11.8135ZM14.5817 11.8135C14.1956 10.864 13.6451 10.1578 12.7231 9.82392L14.5817 11.8135ZM3.45818 18.1096C3.45829 18.1096 3.4584 18.1096 3.45851 18.1096L3.45738 18.6096L3.45803 18.1096C3.45808 18.1096 3.45813 18.1096 3.45818 18.1096ZM7.7085 18.0188L7.70759 18.0179C7.31674 18.0181 6.92517 18.0189 6.53316 18.0197C5.44176 18.0219 4.34686 18.0241 3.25405 18.014L3.25384 18.014C2.31987 18.0049 1.47158 17.6252 1.01538 16.6831L1.01523 16.6828C0.872089 16.3867 0.771822 16.0315 0.762959 15.6822L0.762943 15.6815C0.732175 14.4052 0.830127 13.0889 1.35328 11.8257L7.7085 18.0188ZM7.7085 18.0188H7.91344M7.7085 18.0188H7.91344M7.91344 18.0188C8.37331 18.0188 8.83411 18.0196 9.29546 18.0204C10.4054 18.0224 11.5185 18.0244 12.6297 18.0149L12.6297 18.0149M7.91344 18.0188L12.6297 18.0149M12.6297 18.0149C13.8403 18.0045 14.8363 17.2535 15.0369 16.0518M12.6297 18.0149L14.5437 15.9694M14.4705 11.7801L14.4705 11.7801C14.8632 12.6882 15.0121 13.6391 15.0633 14.5703M14.4705 11.7801L14.5664 14.6397C14.591 15.083 14.6161 15.5361 14.5437 15.9694M14.4705 11.7801C14.1599 11.062 13.7023 10.2999 12.7774 9.92723L12.7768 9.92702M14.4705 11.7801L12.7768 9.92702M15.0633 14.5703L14.5641 14.5977L15.0633 14.5702C15.0633 14.5702 15.0633 14.5702 15.0633 14.5703ZM15.0633 14.5703C15.0644 14.5899 15.0655 14.6097 15.0666 14.6296C15.0906 15.0593 15.1186 15.5623 15.0369 16.0518M15.0369 16.0518C15.0369 16.0517 15.0369 16.0517 15.0369 16.0517L14.5437 15.9694M15.0369 16.0518L14.5437 15.9694M12.7768 9.92702C12.5138 9.82137 12.2001 9.72066 11.8659 9.72422C11.511 9.72801 11.165 9.84876 10.8518 10.1271C10.7917 10.1806 10.7258 10.2182 10.6151 10.2814C10.5798 10.3016 10.54 10.3243 10.4944 10.351L10.4931 10.3518M12.7768 9.92702L10.4931 10.3518M10.4931 10.3518C9.52538 10.9217 8.51634 11.1952 7.41889 11.0719M10.4931 10.3518L7.41889 11.0719M3.44587 9.79938L3.44615 9.79931C3.88018 9.68943 4.36356 9.67312 4.84573 10.0255L3.44587 9.79938ZM3.44587 9.79938C2.28864 10.0931 1.71427 10.9529 1.35338 11.8254L3.44587 9.79938ZM7.41889 11.0719C6.47226 10.9648 5.62336 10.5935 4.84582 10.0255L7.41889 11.0719Z" stroke="white"/>
<path d="M3.83032 4.68498L3.83032 4.68538L3.83032 4.68616C3.83216 6.86622 5.58029 8.5993 7.80654 8.5994L3.83032 4.68498ZM3.83032 4.68498C3.82861 2.50946 5.58295 0.765625 7.80383 0.765625M3.83032 4.68498L7.80383 0.765625M7.81795 8.52192C9.96991 8.51538 11.6891 6.83268 11.6936 4.69693C11.6981 2.53769 9.98629 0.855789 7.81305 0.853608H7.81255H7.81184M7.81795 8.52192L7.81643 8.02192L7.8182 8.52192C7.81812 8.52192 7.81803 8.52192 7.81795 8.52192ZM7.81795 8.52192C5.66606 8.52943 3.9095 6.82163 3.90726 4.68686C3.90502 2.54818 5.6544 0.851557 7.81184 0.853608M7.81184 0.853608C7.81192 0.853608 7.812 0.853609 7.81209 0.853609L7.81158 1.35361V0.853608H7.81184ZM7.80383 0.765625C10.0195 0.765625 11.7909 2.51972 11.7919 4.68251L7.80383 0.765625ZM11.7919 4.68271C11.7918 6.84829 10.0262 8.59845 7.80673 8.5994L11.7919 4.68271Z" stroke="white"/>
</svg>
